<?xml version="1.0" standalone="no"?>
<!DOCTYPE svg PUBLIC "-//W3C//DTD SVG 20010904//EN"
 "http://www.w3.org/TR/2001/REC-SVG-20010904/DTD/svg10.dtd">
<svg version="1.0" xmlns="http://www.w3.org/2000/svg"
 width="2880.000000pt" height="1620.000000pt" viewBox="0 0 2880.000000 1620.000000"
 preserveAspectRatio="xMidYMid meet">

<g transform="translate(0.000000,1620.000000) scale(0.100000,-0.100000)"
fill="#000000" stroke="none">
<path d="M0 8100 l0 -8100 1013 0 1012 1 -30 22 c-34 25 -468 372 -530 424
-64 53 -221 182 -315 258 -48 39 -111 91 -141 117 -30 26 -88 76 -130 110
-338 280 -461 412 -557 597 -117 225 -161 412 -269 1151 -36 250 -37 261 -37
555 -1 300 -1 300 31 450 18 83 44 206 58 275 67 320 189 724 407 1340 313
884 494 1457 608 1924 93 383 108 462 181 911 42 268 63 362 110 499 97 284
223 501 428 736 185 212 487 462 751 620 145 87 440 237 590 299 69 29 134 56
145 61 40 19 296 109 434 154 229 74 655 185 826 216 22 4 101 19 175 34 332
64 424 79 725 122 392 56 485 57 602 7 166 -71 335 -230 470 -443 76 -120 190
-325 267 -481 42 -84 83 -166 92 -182 l15 -27 77 82 c290 308 497 464 792 596
200 89 417 125 625 103 349 -38 636 -115 869 -234 340 -172 597 -464 848 -961
159 -315 330 -775 487 -1311 79 -267 81 -275 91 -275 17 0 410 391 523 520
156 178 227 284 272 404 49 131 116 547 171 1071 8 83 33 299 55 480 22 182
44 368 50 415 37 315 119 705 178 849 76 184 223 324 535 513 125 76 392 212
479 245 23 8 56 21 72 29 286 125 763 230 1096 241 259 8 473 -22 704 -99 420
-141 762 -449 1001 -903 127 -241 237 -594 278 -890 41 -299 51 -534 48 -1210
-3 -717 6 -978 44 -1280 46 -366 115 -632 219 -836 96 -191 171 -297 565 -798
305 -387 486 -664 652 -996 257 -513 451 -1209 528 -1890 71 -642 79 -800 75
-1545 -3 -514 -18 -811 -55 -1130 -6 -47 -15 -128 -21 -180 -20 -187 -62 -416
-134 -737 l-5 -23 3839 0 3838 0 7 63 c16 145 90 342 170 452 136 188 409 382
716 507 228 94 543 178 870 233 406 68 638 92 1193 121 l117 6 0 1753 0 1752
-232 7 c-1063 30 -1749 107 -2468 277 -652 154 -1259 387 -1770 679 -678 388
-1225 911 -1675 1600 -238 365 -305 570 -375 1150 -17 144 -24 619 -11 850 6
113 20 365 32 560 26 450 37 1258 20 1463 -34 401 -108 746 -216 1002 -228
545 -623 967 -1167 1248 -129 67 -324 153 -691 307 -261 108 -317 135 -422
205 -316 210 -695 712 -849 1126 -88 238 -117 390 -116 609 1 80 1 164 1 188
l-1 42 -1654 0 -1653 0 -23 -87 c-153 -599 -334 -1043 -568 -1398 -315 -479
-685 -777 -1151 -929 -276 -90 -425 -109 -876 -109 -371 -1 -413 5 -582 79
-193 84 -285 138 -650 383 -333 223 -413 273 -548 340 -159 79 -258 105 -385
98 -155 -7 -194 -26 -490 -238 -253 -180 -592 -312 -965 -375 -154 -26 -441
-24 -564 4 -241 55 -476 172 -652 324 -221 190 -509 643 -698 1095 -105 253
-124 370 -97 610 9 78 16 156 16 173 l0 30 -3660 0 -3660 0 0 -8100z m2065
5635 c78 -20 136 -60 153 -107 13 -34 12 -41 -10 -90 -40 -84 -103 -159 -310
-368 -196 -198 -250 -240 -359 -281 -113 -42 -433 -41 -639 1 -126 27 -353 93
-424 124 -108 48 -161 125 -161 236 0 168 218 310 620 405 371 88 944 128
1130 80z m20825 -9111 c213 -50 393 -222 540 -514 70 -140 135 -294 177 -417
35 -105 36 -113 37 -258 1 -144 0 -153 -26 -209 -98 -209 -304 -289 -909 -355
-649 -71 -1076 -57 -1394 46 -70 22 -274 125 -346 174 -140 95 -275 233 -338
344 -77 137 -81 342 -10 492 61 128 165 242 275 300 80 42 252 84 624 153 63
12 153 30 200 40 47 11 150 33 230 51 146 31 267 60 415 99 267 70 401 84 525
54z"/>
<path d="M1565 13719 c-49 -5 -141 -13 -203 -19 -241 -22 -535 -86 -698 -150
-179 -71 -288 -156 -319 -249 -15 -47 -15 -55 0 -106 18 -62 61 -118 114 -144
60 -31 316 -110 424 -131 280 -55 564 -50 701 13 72 33 181 124 327 273 193
198 289 327 289 389 0 51 -83 105 -191 124 -74 12 -308 13 -444 0z"/>
<path d="M22685 4614 c-11 -2 -47 -9 -80 -15 -33 -6 -123 -27 -200 -46 -77
-19 -176 -44 -220 -55 -163 -40 -448 -100 -730 -154 -159 -31 -333 -67 -385
-80 -184 -48 -278 -112 -374 -257 -153 -230 -138 -472 42 -684 146 -171 422
-341 656 -403 195 -52 320 -64 656 -64 339 0 594 20 900 69 429 70 561 134
647 314 38 82 44 232 13 356 -46 187 -192 512 -309 688 -108 160 -238 264
-385 308 -67 20 -191 33 -231 23z"/>
<path d="M7345 16168 c-19 -119 -36 -343 -30 -413 19 -238 308 -833 581 -1201
215 -290 466 -458 819 -550 136 -35 394 -45 565 -20 260 38 538 124 754 233
112 56 171 94 311 197 218 160 353 209 520 188 200 -26 346 -103 897 -473 275
-185 336 -223 466 -288 260 -130 291 -136 742 -136 449 1 600 20 863 111 94
33 132 49 227 92 52 24 227 129 285 170 184 133 376 330 516 531 24 35 49 71
55 80 228 328 484 953 608 1484 l6 27 -4089 0 -4090 0 -6 -32z"/>
<path d="M18886 16178 c-9 -37 -7 -347 4 -423 36 -256 169 -578 353 -855 162
-245 426 -537 572 -632 100 -65 260 -143 480 -233 737 -300 987 -446 1305
-765 341 -340 570 -766 660 -1228 75 -380 89 -556 89 -1067 0 -387 -7 -599
-34 -1035 -52 -848 -41 -1299 41 -1724 63 -323 175 -558 452 -946 495 -693
1061 -1173 1835 -1557 801 -399 1772 -646 2917 -742 225 -19 1055 -61 1223
-61 16 0 17 211 17 4281 l0 4282 -72 -7 c-40 -4 -217 -25 -393 -46 -429 -53
-975 -107 -1222 -122 -290 -17 -594 2 -978 63 -319 51 -783 180 -1184 331
-130 48 -459 185 -498 207 -10 5 -99 49 -198 96 -349 168 -655 344 -746 428
-147 137 -437 543 -647 908 -94 164 -240 465 -328 676 l-79 192 -1781 1 -1782
0 -6 -22z"/>
<path d="M22501 16148 c224 -572 570 -1168 930 -1603 42 -51 103 -112 135
-137 224 -172 1005 -554 1474 -722 646 -230 1134 -334 1724 -366 240 -14 458
1 1201 80 85 9 663 79 793 96 l42 5 0 1350 0 1349 -3160 0 -3160 0 21 -52z"/>
<path d="M14055 12490 c-570 -42 -1251 -289 -1719 -624 -239 -171 -335 -301
-398 -541 -26 -100 -64 -275 -83 -383 -18 -108 -120 -913 -140 -1112 -68 -681
-142 -1105 -218 -1255 -70 -139 -240 -338 -541 -632 l-237 -232 16 -63 c9 -35
20 -66 23 -69 4 -3 93 0 197 8 372 27 780 18 1035 -23 313 -51 476 -97 675
-194 501 -243 822 -701 959 -1369 14 -68 28 -126 30 -129 3 -2 17 2 33 10 15
8 120 62 233 120 412 213 865 384 1178 447 234 47 294 54 417 48 177 -8 314
-60 409 -154 80 -79 103 -143 156 -433 52 -287 144 -928 170 -1185 6 -60 15
-153 20 -205 59 -573 101 -1271 101 -1660 0 -178 -19 -549 -37 -705 -14 -126
-57 -365 -80 -441 -34 -118 -86 -222 -140 -283 -56 -62 -146 -108 -284 -145
-161 -43 -250 -50 -505 -40 -126 5 -347 9 -490 9 -291 0 -355 -10 -533 -81
-376 -152 -639 -390 -805 -731 -62 -126 -167 -403 -167 -439 0 -2 1057 -4
2348 -4 l2349 0 22 103 c92 421 138 736 170 1167 39 521 40 1484 2 1860 -65
646 -93 836 -180 1221 -161 712 -436 1317 -856 1884 -45 61 -153 200 -241 310
-273 341 -340 433 -441 600 -78 130 -93 161 -137 277 -71 192 -129 439 -156
667 -43 364 -43 353 -44 1171 -2 848 -11 1070 -57 1385 -65 440 -241 870 -488
1190 -359 466 -924 702 -1566 655z"/>
<path d="M5745 10890 c-27 -4 -149 -22 -270 -39 -898 -129 -1553 -291 -2185
-543 -550 -219 -956 -473 -1291 -807 -254 -254 -393 -455 -512 -738 -90 -213
-114 -310 -182 -728 -50 -308 -75 -447 -105 -572 -11 -46 -29 -122 -40 -170
-50 -213 -135 -523 -229 -830 -44 -146 -245 -741 -341 -1013 -344 -976 -459
-1373 -534 -1855 -51 -321 -20 -759 100 -1430 45 -256 56 -303 99 -424 61
-175 118 -274 239 -418 105 -125 185 -199 496 -454 63 -52 126 -104 140 -116
14 -12 84 -69 155 -128 72 -59 150 -124 175 -145 25 -20 84 -68 131 -106 47
-38 130 -105 185 -150 54 -44 141 -113 191 -152 l93 -72 3805 0 c2093 0 3805
4 3805 8 0 16 -148 377 -252 617 -335 770 -629 1387 -1211 2545 -192 382 -397
787 -455 900 -228 441 -542 1062 -719 1420 -193 390 -301 617 -483 1010 -300
650 -470 1170 -470 1442 0 191 93 505 250 848 135 294 299 569 494 823 l90
119 -118 230 c-121 237 -234 434 -314 548 -63 89 -235 258 -304 299 -113 66
-174 85 -283 87 -55 1 -122 -1 -150 -6z m-3120 -9444 c31 -13 39 -13 72 1 36
14 40 14 79 -7 l41 -23 30 23 c37 27 78 21 117 -15 24 -22 26 -32 28 -110 1
-47 2 -97 2 -112 1 -26 -2 -28 -41 -31 l-43 -3 0 99 c0 110 -4 117 -60 105
l-30 -5 0 -99 0 -99 -40 0 -39 0 -3 98 -3 97 -42 3 -43 3 -2 -68 c-1 -37 -3
-77 -4 -88 -1 -11 -2 -26 -3 -32 -1 -8 -15 -13 -36 -13 l-35 0 0 145 c0 93 4
145 10 145 6 0 26 -7 45 -14z m648 -11 c46 -32 67 -71 67 -127 0 -85 -55 -138
-144 -138 -97 0 -152 59 -144 156 5 61 21 84 82 113 55 28 93 26 139 -4z m347
-4 c32 -23 38 -47 39 -158 1 -100 -6 -115 -55 -105 -23 4 -24 7 -24 96 0 50
-4 97 -9 105 -10 15 -80 7 -82 -9 -1 -6 -3 -14 -4 -20 -1 -5 -3 -46 -4 -91
l-1 -80 -37 3 -38 3 -3 139 -3 139 58 -6 c32 -3 67 -2 78 3 24 10 52 4 85 -19z
m162 18 c15 -8 36 -8 79 1 57 12 59 12 95 -15 43 -33 64 -78 64 -138 0 -82
-66 -134 -157 -123 l-53 6 0 -70 c0 -66 -1 -70 -25 -76 -55 -14 -55 -12 -55
209 0 112 3 207 7 210 9 10 21 9 45 -4z m475 -9 c17 -10 37 -29 43 -41 14 -26
25 -166 16 -203 -6 -26 -7 -26 -102 -26 -89 0 -97 2 -121 26 -21 21 -24 32
-19 62 7 47 37 69 104 78 42 5 52 10 52 25 0 30 -24 33 -76 10 -60 -27 -74
-26 -74 2 0 39 64 84 120 86 14 1 39 -8 57 -19z m198 4 c13 -3 40 0 60 6 102
34 202 -108 148 -209 -27 -52 -75 -73 -147 -65 l-59 6 6 -60 c5 -48 3 -64 -9
-76 -18 -19 -50 -21 -60 -4 -4 6 -9 99 -11 206 -4 201 -1 220 35 207 8 -3 24
-8 37 -11z m472 -4 c40 -24 62 -57 70 -105 5 -30 2 -41 -12 -51 -11 -8 -13
-14 -7 -14 20 0 14 -27 -14 -59 -48 -57 -139 -60 -201 -7 -24 21 -28 32 -31
95 -5 85 7 108 70 140 53 26 84 27 125 1z m309 -3 c14 -14 -11 -48 -49 -69
l-42 -23 -5 -82 c-3 -45 -7 -84 -10 -86 -3 -3 -19 -7 -35 -9 l-30 -3 -3 141
-3 141 86 -2 c47 -1 88 -5 91 -8z m66 -174 c41 -37 14 -93 -44 -93 -32 0 -48
18 -48 51 0 52 54 77 92 42z"/>
<path d="M3152 1364 c-26 -18 -30 -69 -8 -99 20 -28 83 -26 107 4 24 30 24 52
-2 85 -24 30 -63 34 -97 10z"/>
<path d="M3850 1373 c-34 -12 -51 -64 -34 -107 8 -20 66 -31 93 -17 33 18 44
47 31 86 -14 42 -44 55 -90 38z"/>
<path d="M4153 1273 c-22 -8 -14 -32 11 -39 38 -9 61 -1 64 24 3 19 -1 22 -30
21 -18 0 -39 -3 -45 -6z"/>
<path d="M4497 1373 c-40 -10 -44 -103 -5 -124 27 -15 86 -2 98 21 35 66 -16
123 -93 103z"/>
<path d="M4820 1375 c-22 -27 -5 -45 37 -38 58 9 68 16 48 36 -20 21 -68 22
-85 2z"/>
<path d="M4857 1283 c-39 -3 -48 -7 -45 -21 7 -34 148 -15 148 19 0 9 -9 9
-103 2z"/>
<path d="M8073 10490 c-235 -51 -517 -192 -728 -363 -71 -58 -320 -303 -366
-360 l-39 -49 130 -256 c271 -539 529 -948 795 -1262 85 -100 304 -314 401
-392 196 -157 468 -257 801 -293 185 -20 639 -20 924 0 118 8 281 19 363 24
l148 10 52 48 c28 26 71 65 95 87 51 46 52 32 -14 246 -220 724 -348 1069
-530 1427 -102 198 -154 284 -264 433 -100 135 -231 269 -356 363 -85 64 -276
167 -375 202 -269 95 -527 145 -775 151 -143 3 -185 1 -262 -16z"/>
<path d="M6836 9592 c-219 -295 -395 -602 -542 -944 -76 -177 -113 -284 -156
-448 -29 -113 -32 -139 -32 -265 0 -123 4 -156 33 -275 113 -470 397 -1125
1073 -2475 143 -286 284 -565 313 -620 29 -55 81 -156 117 -225 211 -404 1215
-2418 1311 -2629 16 -36 51 -112 79 -170 190 -402 612 -1376 648 -1499 l13
-42 193 0 c106 0 194 3 196 8 3 6 226 104 338 147 104 40 502 168 715 230 350
101 655 200 770 250 17 8 53 23 82 34 62 24 211 99 217 109 5 8 -218 335 -415
608 -219 305 -469 610 -684 834 -509 532 -789 763 -1512 1249 -385 259 -547
393 -667 553 -107 143 -169 291 -200 477 -37 219 -6 513 89 846 136 474 314
780 735 1260 161 184 565 585 900 894 l35 32 -45 -5 c-51 -7 -365 -29 -640
-47 -340 -22 -785 2 -983 51 -305 77 -476 169 -698 377 -400 375 -688 788
-1046 1499 -81 162 -150 294 -153 294 -3 0 -41 -49 -84 -108z"/>
<path d="M10619 7632 c-41 -39 -72 -72 -69 -75 6 -5 172 12 179 18 4 5 -18 92
-29 113 -5 10 -29 -7 -81 -56z"/>
<path d="M10990 7566 l-215 -11 2 -30 c0 -16 53 -239 117 -495 222 -887 236
-934 351 -1165 108 -216 208 -340 362 -451 166 -119 294 -164 494 -171 83 -4
169 -1 220 6 193 28 447 114 669 227 143 72 593 336 629 368 17 15 17 21 5 69
-7 28 -30 120 -50 202 -94 391 -249 682 -493 925 -244 243 -492 374 -872 458
-350 79 -663 96 -1219 68z"/>
<path d="M10598 7541 l-76 -7 -99 -89 c-140 -127 -645 -628 -777 -770 -352
-381 -609 -762 -723 -1073 -269 -739 -256 -1219 46 -1594 121 -151 274 -275
636 -517 404 -271 685 -476 889 -652 136 -116 213 -184 227 -198 9 -9 86 -84
170 -168 210 -207 275 -275 416 -438 286 -330 526 -650 864 -1155 67 -100 57
-100 189 -13 146 97 238 172 371 303 194 192 391 512 527 855 34 86 127 369
146 445 4 14 20 78 37 143 71 281 136 661 174 1022 8 83 20 188 25 235 35 304
65 1038 55 1340 -4 102 -15 266 -26 364 -10 99 -19 194 -19 213 0 18 -5 33
-11 33 -13 0 -13 0 -254 -147 -349 -214 -539 -306 -790 -383 -346 -107 -620
-102 -850 13 -235 117 -400 295 -540 582 -85 175 -156 407 -255 835 -46 200
-164 669 -192 763 -23 76 -7 70 -160 58z"/>
<path d="M15355 6470 c-134 -17 -357 -66 -535 -117 -94 -27 -339 -118 -491
-182 -156 -66 -633 -302 -661 -328 -12 -11 -14 -21 -8 -41 12 -36 38 -263 50
-437 36 -505 -36 -1641 -141 -2235 -141 -796 -304 -1263 -592 -1695 -152 -228
-375 -445 -607 -588 -127 -78 -119 -67 -85 -118 38 -55 259 -331 339 -424 72
-83 57 -66 180 -198 l98 -107 202 0 201 0 28 93 c58 191 156 405 253 555 182
279 561 532 920 612 120 27 354 35 584 21 375 -24 429 -24 550 -7 211 31 353
78 430 143 68 57 139 197 178 353 83 329 124 1027 92 1588 -26 460 -42 677
-74 987 -8 77 -20 199 -26 270 -18 212 -63 551 -135 1025 -51 331 -89 506
-132 596 -45 96 -166 181 -308 219 -75 20 -218 26 -310 15z"/>
<path d="M28430 1339 c-840 -50 -1558 -203 -1983 -421 -420 -216 -649 -501
-692 -860 l-7 -58 1526 0 1526 0 0 675 0 675 -117 -1 c-65 -1 -179 -6 -253
-10z"/>
<path d="M12100 698 c-198 -100 -527 -217 -925 -328 -354 -98 -781 -242 -952
-320 l-108 -50 1373 0 c754 0 1372 2 1372 5 0 3 -42 51 -92 106 -157 170 -332
378 -435 516 -54 72 -102 131 -108 131 -5 -1 -62 -28 -125 -60z"/>
</g>
</svg>
