<svg xmlns="http://www.w3.org/2000/svg" xmlns:xlink="http://www.w3.org/1999/xlink" width="100" zoomAndPan="magnify" viewBox="0 0 75 37.5" height="50" preserveAspectRatio="xMidYMid meet" version="1.0"><defs><g/></defs><g fill="#ffffff" fill-opacity="1"><g transform="translate(3.339695, 22.393347)"><g><path d="M 4.5625 -8.921875 C 5.21875 -8.921875 5.8125 -8.800781 6.34375 -8.5625 C 6.875 -8.332031 7.304688 -8.007812 7.640625 -7.59375 C 7.984375 -7.1875 8.207031 -6.71875 8.3125 -6.1875 C 8.332031 -6.09375 8.34375 -6.019531 8.34375 -5.96875 C 8.34375 -5.894531 8.328125 -5.84375 8.296875 -5.8125 C 8.273438 -5.789062 8.226562 -5.78125 8.15625 -5.78125 L 6.078125 -5.640625 C 6.003906 -5.640625 5.953125 -5.65625 5.921875 -5.6875 C 5.898438 -5.71875 5.878906 -5.78125 5.859375 -5.875 C 5.785156 -6.25 5.65625 -6.546875 5.46875 -6.765625 C 5.28125 -6.984375 5.003906 -7.09375 4.640625 -7.09375 C 4.171875 -7.09375 3.804688 -6.882812 3.546875 -6.46875 C 3.296875 -6.0625 3.171875 -5.394531 3.171875 -4.46875 C 3.171875 -3.507812 3.285156 -2.828125 3.515625 -2.421875 C 3.753906 -2.023438 4.125 -1.828125 4.625 -1.828125 C 5.039062 -1.828125 5.394531 -1.929688 5.6875 -2.140625 C 5.988281 -2.359375 6.238281 -2.71875 6.4375 -3.21875 C 6.457031 -3.289062 6.523438 -3.328125 6.640625 -3.328125 C 6.691406 -3.328125 6.734375 -3.320312 6.765625 -3.3125 L 8.25 -3.015625 C 8.375 -2.972656 8.4375 -2.878906 8.4375 -2.734375 C 8.4375 -2.515625 8.296875 -2.171875 8.015625 -1.703125 C 7.742188 -1.242188 7.316406 -0.820312 6.734375 -0.4375 C 6.160156 -0.0625 5.429688 0.125 4.546875 0.125 C 3.703125 0.125 2.960938 -0.0703125 2.328125 -0.46875 C 1.703125 -0.875 1.21875 -1.425781 0.875 -2.125 C 0.53125 -2.820312 0.359375 -3.617188 0.359375 -4.515625 C 0.359375 -5.398438 0.53125 -6.175781 0.875 -6.84375 C 1.21875 -7.507812 1.707031 -8.019531 2.34375 -8.375 C 2.976562 -8.738281 3.71875 -8.921875 4.5625 -8.921875 Z M 4.5625 -8.921875 "/></g></g></g><g fill="#ffffff" fill-opacity="1"><g transform="translate(12.075802, 22.393347)"><g><path d="M 4.640625 0.125 C 3.773438 0.125 3.019531 -0.0546875 2.375 -0.421875 C 1.726562 -0.796875 1.234375 -1.320312 0.890625 -2 C 0.546875 -2.675781 0.375 -3.46875 0.375 -4.375 C 0.375 -5.28125 0.546875 -6.078125 0.890625 -6.765625 C 1.242188 -7.453125 1.742188 -7.984375 2.390625 -8.359375 C 3.035156 -8.734375 3.785156 -8.921875 4.640625 -8.921875 C 5.484375 -8.921875 6.222656 -8.734375 6.859375 -8.359375 C 7.503906 -7.984375 8 -7.453125 8.34375 -6.765625 C 8.695312 -6.078125 8.875 -5.28125 8.875 -4.375 C 8.875 -3.476562 8.703125 -2.6875 8.359375 -2 C 8.015625 -1.320312 7.519531 -0.796875 6.875 -0.421875 C 6.238281 -0.0546875 5.492188 0.125 4.640625 0.125 Z M 4.640625 -1.734375 C 4.984375 -1.734375 5.257812 -1.816406 5.46875 -1.984375 C 5.675781 -2.148438 5.828125 -2.421875 5.921875 -2.796875 C 6.015625 -3.179688 6.0625 -3.695312 6.0625 -4.34375 C 6.0625 -5.320312 5.945312 -6.023438 5.71875 -6.453125 C 5.5 -6.878906 5.140625 -7.09375 4.640625 -7.09375 C 4.117188 -7.09375 3.742188 -6.878906 3.515625 -6.453125 C 3.296875 -6.023438 3.1875 -5.320312 3.1875 -4.34375 C 3.1875 -3.695312 3.234375 -3.179688 3.328125 -2.796875 C 3.421875 -2.421875 3.570312 -2.148438 3.78125 -1.984375 C 4 -1.816406 4.285156 -1.734375 4.640625 -1.734375 Z M 4.640625 -1.734375 "/></g></g></g><g fill="#ffffff" fill-opacity="1"><g transform="translate(21.321608, 22.393347)"><g><path d="M 2.34375 -8.796875 C 3.28125 -8.796875 3.863281 -8.789062 4.09375 -8.78125 C 5.632812 -8.726562 6.800781 -8.3125 7.59375 -7.53125 C 8.382812 -6.757812 8.78125 -5.722656 8.78125 -4.421875 C 8.78125 -3.554688 8.597656 -2.789062 8.234375 -2.125 C 7.878906 -1.457031 7.347656 -0.9375 6.640625 -0.5625 C 5.941406 -0.1875 5.085938 0 4.078125 0 L 0.953125 0 C 0.835938 0 0.75 -0.0234375 0.6875 -0.078125 C 0.632812 -0.140625 0.609375 -0.234375 0.609375 -0.359375 L 0.609375 -8.5 C 0.609375 -8.613281 0.632812 -8.691406 0.6875 -8.734375 C 0.738281 -8.773438 0.820312 -8.796875 0.9375 -8.796875 Z M 3.421875 -6.9375 C 3.390625 -6.9375 3.363281 -6.921875 3.34375 -6.890625 C 3.320312 -6.867188 3.3125 -6.828125 3.3125 -6.765625 L 3.3125 -2.046875 C 3.3125 -1.972656 3.320312 -1.921875 3.34375 -1.890625 C 3.363281 -1.867188 3.40625 -1.859375 3.46875 -1.859375 L 3.5625 -1.859375 C 4.34375 -1.859375 4.9375 -2.0625 5.34375 -2.46875 C 5.75 -2.875 5.953125 -3.535156 5.953125 -4.453125 C 5.953125 -5.242188 5.796875 -5.832031 5.484375 -6.21875 C 5.179688 -6.613281 4.734375 -6.835938 4.140625 -6.890625 Z M 3.421875 -6.9375 "/></g></g></g><g fill="#ffffff" fill-opacity="1"><g transform="translate(30.460735, 22.393347)"><g><path d="M 0.515625 0 C 0.453125 0 0.398438 -0.0195312 0.359375 -0.0625 C 0.316406 -0.101562 0.296875 -0.164062 0.296875 -0.25 C 0.296875 -0.300781 0.304688 -0.363281 0.328125 -0.4375 L 3.203125 -8.53125 C 3.242188 -8.632812 3.285156 -8.703125 3.328125 -8.734375 C 3.378906 -8.773438 3.457031 -8.796875 3.5625 -8.796875 L 5.890625 -8.796875 C 5.984375 -8.796875 6.066406 -8.765625 6.140625 -8.703125 C 6.222656 -8.648438 6.285156 -8.578125 6.328125 -8.484375 L 9.171875 -0.40625 C 9.179688 -0.34375 9.1875 -0.296875 9.1875 -0.265625 C 9.1875 -0.191406 9.171875 -0.128906 9.140625 -0.078125 C 9.109375 -0.0234375 9.0625 0 9 0 L 6.671875 0 C 6.535156 0 6.453125 -0.0664062 6.421875 -0.203125 L 5.953125 -1.5625 C 5.929688 -1.625 5.910156 -1.660156 5.890625 -1.671875 C 5.867188 -1.691406 5.832031 -1.703125 5.78125 -1.703125 L 3.265625 -1.703125 C 3.171875 -1.703125 3.109375 -1.660156 3.078125 -1.578125 L 2.59375 -0.171875 C 2.550781 -0.0546875 2.457031 0 2.3125 0 Z M 5.1875 -3.71875 C 5.269531 -3.71875 5.3125 -3.757812 5.3125 -3.84375 C 5.3125 -3.851562 5.304688 -3.894531 5.296875 -3.96875 L 4.578125 -5.984375 C 4.554688 -6.023438 4.53125 -6.046875 4.5 -6.046875 C 4.46875 -6.046875 4.445312 -6.023438 4.4375 -5.984375 L 3.71875 -3.96875 C 3.695312 -3.9375 3.6875 -3.898438 3.6875 -3.859375 C 3.6875 -3.765625 3.734375 -3.71875 3.828125 -3.71875 Z M 5.1875 -3.71875 "/></g></g></g><g fill="#ffde59" fill-opacity="1"><g transform="translate(39.941513, 22.393347)"><g><path d="M 2.875 -0.34375 C 2.875 -0.21875 2.84375 -0.128906 2.78125 -0.078125 C 2.71875 -0.0234375 2.617188 0 2.484375 0 L 0.703125 0 C 0.578125 0 0.488281 -0.0195312 0.4375 -0.0625 C 0.394531 -0.113281 0.375 -0.191406 0.375 -0.296875 L 0.375 -2.125 C 0.375 -2.207031 0.394531 -2.269531 0.4375 -2.3125 C 0.476562 -2.363281 0.535156 -2.390625 0.609375 -2.390625 L 2.65625 -2.390625 C 2.800781 -2.390625 2.875 -2.304688 2.875 -2.140625 Z M 2.875 -0.34375 "/></g></g></g><g fill="#ffffff" fill-opacity="1"><g transform="translate(43.248976, 22.393347)"><g><path d="M 12.46875 -8.796875 C 12.59375 -8.796875 12.6875 -8.765625 12.75 -8.703125 C 12.820312 -8.648438 12.859375 -8.570312 12.859375 -8.46875 C 12.859375 -8.4375 12.847656 -8.390625 12.828125 -8.328125 L 10.421875 -0.296875 C 10.378906 -0.191406 10.328125 -0.113281 10.265625 -0.0625 C 10.203125 -0.0195312 10.113281 0 10 0 L 8.359375 0 C 8.128906 0 7.988281 -0.0976562 7.9375 -0.296875 L 6.703125 -4.46875 C 6.679688 -4.570312 6.65625 -4.625 6.625 -4.625 C 6.59375 -4.625 6.554688 -4.566406 6.515625 -4.453125 L 5.296875 -0.296875 C 5.253906 -0.191406 5.203125 -0.113281 5.140625 -0.0625 C 5.078125 -0.0195312 4.984375 0 4.859375 0 L 3.171875 0 C 3.046875 0 2.953125 -0.0195312 2.890625 -0.0625 C 2.828125 -0.113281 2.773438 -0.191406 2.734375 -0.296875 L 0.3125 -8.328125 C 0.300781 -8.390625 0.296875 -8.4375 0.296875 -8.46875 C 0.296875 -8.570312 0.328125 -8.648438 0.390625 -8.703125 C 0.460938 -8.765625 0.554688 -8.796875 0.671875 -8.796875 L 2.625 -8.796875 C 2.75 -8.796875 2.835938 -8.773438 2.890625 -8.734375 C 2.953125 -8.703125 2.992188 -8.640625 3.015625 -8.546875 L 4.265625 -4.15625 C 4.296875 -4.0625 4.328125 -4.015625 4.359375 -4.015625 C 4.378906 -4.015625 4.394531 -4.046875 4.40625 -4.109375 L 5.65625 -8.546875 C 5.695312 -8.710938 5.820312 -8.796875 6.03125 -8.796875 L 7.703125 -8.796875 C 7.816406 -8.796875 7.898438 -8.773438 7.953125 -8.734375 C 8.015625 -8.703125 8.054688 -8.640625 8.078125 -8.546875 L 9.375 -4.046875 C 9.394531 -3.992188 9.421875 -3.960938 9.453125 -3.953125 C 9.484375 -3.953125 9.503906 -3.972656 9.515625 -4.015625 L 10.71875 -8.546875 C 10.757812 -8.710938 10.882812 -8.796875 11.09375 -8.796875 Z M 12.46875 -8.796875 "/></g></g></g><g fill="#ffffff" fill-opacity="1"><g transform="translate(56.394611, 22.393347)"><g><path d="M 0.609375 -8.53125 C 0.609375 -8.707031 0.6875 -8.796875 0.84375 -8.796875 L 7.25 -8.796875 C 7.382812 -8.796875 7.453125 -8.710938 7.453125 -8.546875 L 7.453125 -7.171875 C 7.453125 -6.960938 7.347656 -6.859375 7.140625 -6.859375 L 3.578125 -6.859375 C 3.398438 -6.859375 3.3125 -6.78125 3.3125 -6.625 L 3.3125 -5.625 C 3.3125 -5.539062 3.328125 -5.476562 3.359375 -5.4375 C 3.398438 -5.394531 3.453125 -5.375 3.515625 -5.375 L 5.65625 -5.375 C 5.820312 -5.375 5.90625 -5.296875 5.90625 -5.140625 L 5.90625 -3.671875 C 5.90625 -3.535156 5.832031 -3.46875 5.6875 -3.46875 L 3.5 -3.46875 C 3.445312 -3.46875 3.398438 -3.453125 3.359375 -3.421875 C 3.328125 -3.390625 3.3125 -3.347656 3.3125 -3.296875 L 3.3125 -2.109375 C 3.3125 -2.046875 3.320312 -2 3.34375 -1.96875 C 3.363281 -1.945312 3.398438 -1.9375 3.453125 -1.9375 L 7.3125 -1.9375 C 7.476562 -1.9375 7.5625 -1.863281 7.5625 -1.71875 L 7.5625 -0.265625 C 7.5625 -0.179688 7.535156 -0.113281 7.484375 -0.0625 C 7.441406 -0.0195312 7.375 0 7.28125 0 L 0.9375 0 C 0.820312 0 0.738281 -0.0195312 0.6875 -0.0625 C 0.632812 -0.113281 0.609375 -0.191406 0.609375 -0.296875 Z M 0.609375 -8.53125 "/></g></g></g><g fill="#ffffff" fill-opacity="1"><g transform="translate(64.348372, 22.393347)"><g><path d="M 0.890625 0 C 0.804688 0 0.738281 -0.0234375 0.6875 -0.078125 C 0.632812 -0.128906 0.609375 -0.191406 0.609375 -0.265625 L 0.609375 -8.484375 C 0.609375 -8.578125 0.632812 -8.648438 0.6875 -8.703125 C 0.75 -8.765625 0.820312 -8.796875 0.90625 -8.796875 L 4.453125 -8.796875 C 5.679688 -8.796875 6.613281 -8.597656 7.25 -8.203125 C 7.882812 -7.816406 8.203125 -7.238281 8.203125 -6.46875 C 8.203125 -6.050781 8.085938 -5.695312 7.859375 -5.40625 C 7.628906 -5.125 7.226562 -4.847656 6.65625 -4.578125 C 6.632812 -4.566406 6.625 -4.550781 6.625 -4.53125 C 6.625 -4.507812 6.632812 -4.5 6.65625 -4.5 C 7.289062 -4.257812 7.742188 -3.976562 8.015625 -3.65625 C 8.285156 -3.332031 8.421875 -2.910156 8.421875 -2.390625 C 8.421875 -1.578125 8.109375 -0.972656 7.484375 -0.578125 C 6.867188 -0.191406 5.921875 0 4.640625 0 Z M 4.640625 -5.359375 C 4.910156 -5.359375 5.128906 -5.429688 5.296875 -5.578125 C 5.460938 -5.734375 5.546875 -5.929688 5.546875 -6.171875 C 5.546875 -6.421875 5.453125 -6.625 5.265625 -6.78125 C 5.078125 -6.9375 4.835938 -7.015625 4.546875 -7.015625 L 3.578125 -7.015625 C 3.472656 -7.015625 3.398438 -6.992188 3.359375 -6.953125 C 3.328125 -6.921875 3.3125 -6.863281 3.3125 -6.78125 L 3.3125 -5.625 C 3.3125 -5.53125 3.328125 -5.460938 3.359375 -5.421875 C 3.390625 -5.378906 3.441406 -5.359375 3.515625 -5.359375 Z M 4.578125 -1.78125 C 4.898438 -1.78125 5.15625 -1.867188 5.34375 -2.046875 C 5.53125 -2.234375 5.625 -2.445312 5.625 -2.6875 C 5.625 -2.9375 5.53125 -3.140625 5.34375 -3.296875 C 5.164062 -3.453125 4.929688 -3.53125 4.640625 -3.53125 L 3.578125 -3.53125 C 3.472656 -3.53125 3.398438 -3.507812 3.359375 -3.46875 C 3.328125 -3.4375 3.3125 -3.375 3.3125 -3.28125 L 3.3125 -2.046875 C 3.3125 -1.941406 3.328125 -1.867188 3.359375 -1.828125 C 3.390625 -1.796875 3.441406 -1.78125 3.515625 -1.78125 Z M 4.578125 -1.78125 "/></g></g></g></svg>